<svg width="530" height="77" viewBox="0 0 530 77" fill="none" xmlns="http://www.w3.org/2000/svg">
<path d="M529.375 74.0004H504.475V28.8004L487.775 74.0004H468.275L451.675 29.0004V74.0004H426.875V3.40039H460.375L478.175 49.5004L495.975 3.40039H529.375V74.0004Z" fill="#BADC6E"/>
<path d="M326.975 3.40039H352.175V43.5004C352.175 48.6004 352.575 53.1004 356.675 56.8004C361.075 60.8004 367.175 60.8004 368.875 60.8004C370.275 60.8004 376.575 60.7004 380.775 57.1004C385.175 53.2004 385.375 47.4004 385.375 43.1004V3.40039H410.575V42.5004C410.575 51.5004 410.275 60.5004 403.075 67.3004C396.875 73.1004 386.475 76.5004 368.475 76.5004C358.975 76.5004 339.175 76.4004 330.675 63.7004C326.975 58.1004 326.975 51.6004 326.975 49.0004V3.40039Z" fill="#BADC6E"/>
<path d="M310.677 74.0004H289.677L256.177 36.2004V74.0004H231.177V3.40039H252.077L285.777 40.6004V3.40039H310.677V74.0004Z" fill="#BADC6E"/>
<path d="M215.777 73.9992H193.877V66.1992C187.277 72.0992 178.077 76.0992 163.977 76.0992C145.277 76.0992 123.677 66.1992 123.677 39.5992C123.677 34.8992 124.277 23.9992 133.077 14.3992C139.677 7.29922 151.177 0.199219 172.577 0.199219C175.177 0.199219 189.477 0.399217 199.677 5.39922C207.177 9.09922 211.377 14.3992 213.477 19.5992L188.477 22.2992C186.077 19.6992 181.677 16.0992 172.977 16.0992C170.777 16.0992 164.377 16.1992 158.777 20.1992C155.577 22.4992 149.677 28.2992 149.677 38.8992C149.677 41.0992 149.977 47.6992 154.377 52.8992C158.577 57.7992 165.277 59.9992 171.577 59.9992C183.177 59.9992 191.177 53.0992 192.077 47.6992H173.677V31.6992H215.777V73.9992Z" fill="#BADC6E"/>
<path d="M113.701 74.0004H88.4009V3.40039H113.701V74.0004Z" fill="#BADC6E"/>
<path d="M0 52.9004C3.2 52.9004 24.9 52.2004 24.9 52.2004C26.5 59.6004 35.9 60.3004 40.5 60.3004C48.3 60.3004 52.8 57.5004 52.8 53.2004C52.8 49.9004 49.9 48.1004 45.5 47.2004L28.2 43.8004C11.5 40.5004 3.5 35.1004 3.5 23.1004C3.5 17.4004 5.7 13.8004 7.3 11.7004C12.9 3.90039 23.7 0.400391 39.1 0.400391C49.3 0.400391 57.4 1.80039 61.3 3.2004C65.7 4.70039 70.8 7.9004 73.8 13.2004C75.6 16.5004 76.1 20.1004 76.2 21.0004L51.5 22.4004C49.9 16.2004 43.3 15.9004 39 15.9004C36.6 15.9004 27.9 16.1004 27.9 21.5004C27.9 25.6004 32.3 26.8004 42.5 28.9004L51.4 30.7004C61 32.6004 77.4 35.4004 77.4 51.1004C77.4 52.7004 77.2 58.8004 72.9 64.4004C66.2 73.0004 54 76.1004 36.9 76.1004C25.2 76.1004 2.3 74.6004 0 52.9004Z" fill="#BADC6E"/>
</svg>
